<?xml version="1.0" encoding="utf-8"?>
<!-- Generator: Adobe Illustrator 25.0.1, SVG Export Plug-In . SVG Version: 6.00 Build 0)  -->
<svg version="1.1" id="Layer_1" xmlns="http://www.w3.org/2000/svg" xmlns:xlink="http://www.w3.org/1999/xlink" x="0px" y="0px"
	 viewBox="0 0 600 600" style="enable-background:new 0 0 600 600;" xml:space="preserve">
<style type="text/css">
	.st0{fill:#FF0000;}
	.st1{fill:#FFFFFF;}
</style>
<g>
	<circle class="st0" cx="300" cy="300" r="300"/>
</g>
<g>
	<path class="st1" d="M300.01,419c-0.47-0.44-0.89-0.8-1.27-1.18c-38.45-38.44-76.9-76.88-115.34-115.34
		c-10.77-10.77-17.54-23.68-19.99-38.71c-6.08-37.28,17.21-71.14,51.79-80.36c7.13-1.9,14.4-2.73,21.75-2.29
		c17.93,1.07,33.45,7.76,46.33,20.35c5.16,5.05,10.22,10.2,15.33,15.3c0.43,0.43,0.87,0.83,1.39,1.32c0.51-0.49,0.95-0.89,1.38-1.31
		c5.19-5.18,10.34-10.4,15.58-15.52c10.41-10.18,22.85-16.5,37.16-19.13c5.31-0.98,10.69-1.32,16.08-1.02
		c34.5,1.96,60.25,26.99,65.9,56.81c4.7,24.77-1.72,46.56-19.51,64.48c-38.27,38.55-76.78,76.86-115.19,115.27
		C300.96,418.09,300.52,418.51,300.01,419z"/>
</g>
</svg>
